<svg width="679" height="683" viewBox="0 0 679 683" fill="none" xmlns="http://www.w3.org/2000/svg">
<path d="M575.333 1.64773C564 4.18106 546.8 12.7144 538.667 19.9144C533.867 24.1811 317.333 260.314 229.867 356.714L222.133 365.114L202.8 423.514C185.2 476.181 183.333 482.581 183.333 490.981C183.333 516.448 206.667 535.648 230.8 530.314C239.733 528.314 341.333 483.914 348.267 478.981C352.667 475.914 623.867 180.314 658.4 140.981C676.4 120.448 683.6 88.3144 675.867 62.3144C668.133 35.7811 646.133 12.9811 619.733 4.18106C606.667 -0.21894 588.133 -1.28561 575.333 1.64773ZM604 60.8477C618.4 67.3811 624.933 86.4477 616.933 98.5811C613.333 103.914 356.533 384.981 355.067 384.981C354.4 384.981 345.2 377.114 334.533 367.381L315.333 349.781L320.4 344.448C323.333 341.381 382.4 276.848 451.733 200.848C550.533 92.5811 578.933 62.1811 582.933 60.5811C589.733 57.7811 597.467 57.7811 604 60.8477ZM307.333 421.914L316 429.914L311.867 432.048C302.267 436.981 255.067 457.114 254.4 456.448C253.733 455.781 271.867 399.914 274.267 395.248C275.6 392.714 275.467 392.581 307.333 421.914Z" fill="#DC0303"/>
<path d="M118.933 63.7811C88 66.9811 58.8 81.3811 37.0667 104.048C20 121.781 9.33333 141.381 2.93333 166.314L0 177.648V372.981V568.314L3.73333 581.648C16 626.581 47.8667 660.714 90.9333 675.514C111.067 682.314 109.867 682.314 311.467 682.314C472.667 682.314 500.667 682.048 510.533 680.314C568.533 670.181 612.8 624.181 620.533 565.914C621.467 559.248 622 509.114 622 425.781C622 281.514 622.4 288.981 613.067 279.381C601.733 267.781 583.6 267.648 572.133 279.114C563.467 287.914 564.133 277.248 563.333 426.981L562.667 562.981L559.733 571.781C552.133 593.914 533.6 612.448 511.467 620.048L502.667 622.981L314.667 623.381C106.933 623.781 116.8 624.181 99.0667 615.381C87.6 609.648 71.8667 593.781 66.2667 582.314C57.7333 564.981 58 573.248 58 372.314C58 170.848 57.7333 180.181 66.5333 162.581C75.3333 144.981 91.4667 131.381 111.333 124.581C120 121.648 120 121.648 260 120.981C414.267 120.181 403.2 120.848 411.6 112.048C419.333 103.914 421.467 90.5811 416.8 80.1811C413.333 72.5811 404.533 65.5144 396.4 63.7811C388.533 62.0478 135.067 62.0478 118.933 63.7811Z" fill="#DC0303"/>
</svg>
