<svg width="25" height="24" viewBox="0 0 25 24" fill="none" xmlns="http://www.w3.org/2000/svg">
<path d="M2.07925 0.212845C1.35603 0.4713 0.560493 1.17065 0.253126 1.77878C0.0542412 2.17407 0 4.12008 0 11.965C0 21.1173 0.0361608 21.6951 0.343528 22.288C0.777458 23.0938 1.68148 23.6715 2.83862 23.8691C3.43528 23.9755 6.38238 24.0212 11.4087 23.9908C18.9302 23.9451 19.0929 23.9451 19.8342 23.6107C21.3168 22.9417 21.6965 22.0751 21.6965 19.2625V17.3013L22.5643 16.6476L23.4141 15.9938L22.5643 15.2489L21.7146 14.5191L21.6603 8.28578C21.6061 1.53553 21.6061 1.61155 20.5755 0.805773C19.563 0.0152035 19.4364 0 10.7217 0C4.41162 0.0152035 2.4951 0.060812 2.07925 0.212845ZM19.3641 1.96122L19.8884 2.40211V9.00033V15.5833L18.1708 17.0277L16.4532 18.4872L17.4114 19.2777L18.3697 20.0683L18.9844 19.5362C19.328 19.2473 19.6715 19.0041 19.7438 19.0041C19.9969 19.0041 19.9065 21.2694 19.6172 21.7255C19.1472 22.5008 18.9483 22.516 10.5047 22.4704L2.6759 22.4248L2.24197 21.9991L1.80804 21.5734V11.9194V2.26529L2.26005 1.90041L2.69398 1.52033H10.7578H18.8398L19.3641 1.96122Z" fill="#DC0303"/>
<path d="M3.99575 6.56781C3.88726 6.79586 3.90534 7.02391 4.06807 7.22155C4.28503 7.51042 4.52008 7.52562 10.577 7.57123C17.1764 7.60164 17.3572 7.58643 17.3572 6.93269C17.3572 6.24855 17.2668 6.23334 10.5409 6.23334H4.14039L3.99575 6.56781Z" fill="#DC0303"/>
<path d="M4.15847 10.3382C3.72454 10.7031 3.72454 10.7791 4.08615 11.22L4.35735 11.5544H10.6493C17.2668 11.5544 17.3572 11.5392 17.3572 10.8551C17.3572 10.0493 17.2848 10.0341 10.6493 10.0341C4.75512 10.0341 4.502 10.0493 4.15847 10.3382Z" fill="#DC0303"/>
<path d="M4.15847 14.2911C3.72454 14.6559 3.72454 14.732 4.08615 15.1729L4.35735 15.5073H10.6493C15.2779 15.5073 16.9775 15.4617 17.1402 15.3249C17.4837 15.036 17.4114 14.3215 17.0136 14.139C16.7786 14.0478 14.4281 13.987 10.5951 13.987C4.75512 13.987 4.502 14.0022 4.15847 14.2911Z" fill="#DC0303"/>
<path d="M15.6757 19.825C15.5311 20.3268 15.4768 20.7981 15.5311 20.8589C15.6215 20.9501 17.4657 20.6308 17.6284 20.494C17.6646 20.4636 17.3029 20.0987 16.8148 19.673L15.9288 18.8824L15.6757 19.825Z" fill="#DC0303"/>
<path d="M22.5101 13.3788L21.9858 13.8501L22.926 14.6255L23.8481 15.4161L24.3362 15.0512C25.186 14.3671 25.2041 14.215 24.4809 13.5309C23.6853 12.8011 23.2152 12.7555 22.5101 13.3788Z" fill="#DC0303"/>
</svg>
