<svg width="159" height="44" viewBox="0 0 159 44" fill="none" xmlns="http://www.w3.org/2000/svg">
<g clip-path="url(#clip0_7_132)">
<path d="M4.54073 4.14037e-05C5.44327 -0.00397429 6.32654 0.284202 7.07876 0.827871C7.83099 1.37154 8.41832 2.14627 8.76625 3.05407C9.11419 3.96187 9.20716 4.96166 9.03331 5.92708C8.85946 6.89251 8.42668 7.78008 7.7898 8.47714C7.15291 9.17425 6.34058 9.6497 5.45565 9.84313C4.57072 10.0366 3.653 9.93935 2.8188 9.56378C1.98461 9.1882 1.27146 8.55103 0.769643 7.7333C0.267829 6.91555 7.51825e-06 5.95383 1.58406e-10 4.96999C-1.00456e-05 3.65535 0.477794 2.39428 1.32882 1.46279C2.17983 0.531312 3.33475 0.00540724 4.54073 4.14037e-05ZM0.614034 13.6727H8.46732V40.8559H0.632661L0.614034 13.6727Z" fill="#010101"/>
<path d="M33.9439 0C34.8457 0 35.7271 0.291371 36.4769 0.837486C37.2267 1.3836 37.811 2.15998 38.1561 3.06814C38.5012 3.9763 38.5915 4.97557 38.4155 5.93967C38.2397 6.90377 37.8055 7.78925 37.1678 8.48428C36.5302 9.1794 35.7178 9.65277 34.8333 9.84454C33.9489 10.0363 33.0322 9.93794 32.1991 9.56178C31.366 9.18562 30.6539 8.54862 30.1529 7.73127C29.6519 6.91395 29.3845 5.95293 29.3845 4.96995C29.3845 4.31727 29.5025 3.67114 29.7316 3.06814C29.9607 2.46515 30.2965 1.91709 30.7199 1.45557C31.1433 0.99406 31.6459 0.628148 32.1991 0.378379C32.7523 0.128611 33.3451 0 33.9439 0ZM30.0172 13.6727H37.8518V40.8762H30.0172V13.6727Z" fill="#010101"/>
<path d="M56.3498 21.5437C55.8028 20.7756 55.1036 20.1521 54.3044 19.72C53.5052 19.2879 52.6268 19.0585 51.7347 19.0487C50.4693 19.0487 48.5711 19.7587 48.5711 21.3816C48.5711 25.4387 60.4254 22.5782 60.4254 32.8429C60.4254 38.9287 55.6055 41.566 50.339 41.566C46.5662 41.6489 42.8992 40.2033 40.0479 37.5088L44.4212 32.2345C45.0799 33.1705 45.9242 33.9322 46.891 34.4626C47.8577 34.9931 48.9219 35.2786 50.004 35.2977C51.7161 35.2977 52.9816 34.5875 52.9816 33.127C52.9816 28.3395 41.2389 31.7274 41.2389 21.8888C41.2389 15.4784 46.3937 12.8614 51.5485 12.8614C53.2128 12.7505 54.8803 13.0118 56.4484 13.6292C58.0166 14.2467 59.4523 15.2073 60.6673 16.452L56.3498 21.5437Z" fill="#010101"/>
<path d="M26.8908 12.7802C25.3724 12.6336 23.849 12.991 22.5206 13.8056C21.192 14.6202 20.1206 15.8539 19.4469 17.3445H19.3353V13.5914H11.6868V40.7746H19.5215V29.7188C19.5215 24.2011 20.2658 20.448 26.2209 20.448C26.5804 20.4273 26.9407 20.4273 27.3002 20.448L27.6166 12.7192H26.9653" fill="#010101"/>
<path d="M97.5327 40.3284C92.6532 42.9549 87.2448 44.197 81.8079 43.9394C70.9954 43.635 62.0628 35.1554 62.0443 22.2536C62.0443 8.98661 70.6233 0.527466 82.422 0.527466C88.3951 0.527466 93.5877 2.10963 97.3096 5.96395L91.5402 12.9425C90.3712 11.6206 88.9451 10.6009 87.3673 9.95851C85.7894 9.31603 84.0997 9.06739 82.422 9.23019C76.8389 9.23019 71.7398 14.3421 71.7398 22.2536C71.7398 30.1651 76.02 34.6281 81.752 35.2772C84.2846 35.5953 86.8497 35.1899 89.1958 34.1007V26.5136H81.9751V18.5617H97.626L97.5327 40.3284Z" fill="#DC0303"/>
<path d="M120.888 0.527466C132.779 0.527466 141.358 8.98661 141.358 22.2536C141.358 35.5206 132.686 44 120.888 44C109.089 44 100.324 35.5206 100.324 22.2536C100.324 8.98661 108.996 0.527466 120.888 0.527466ZM120.888 35.0135C127.438 35.0135 131.719 29.658 131.719 22.2942C131.719 14.9304 127.438 9.57488 120.888 9.57488C114.337 9.57488 110.056 14.9304 110.056 22.2942C110.056 29.658 114.337 35.0135 120.888 35.0135Z" fill="#DC0303"/>
<path d="M147.909 0.831787V2.19079H144.801V10.5892H143.313V2.19079H140.204V0.831787H147.909Z" fill="#010101"/>
<path d="M159 0.831787V10.6095H157.679V4.94964L157.79 2.2517L155.018 10.6095H153.789L151.017 2.2517L151.128 4.94964V10.6095H149.751V0.831787H151.947L153.808 6.49139L154.441 8.80405L155.092 6.49139L156.953 0.831787H159Z" fill="#010101"/>
</g>
<defs>
<clipPath id="clip0_7_132">
<rect width="159" height="44" fill="white"/>
</clipPath>
</defs>
</svg>
