<svg width="196" height="53" viewBox="0 0 196 53" fill="none" xmlns="http://www.w3.org/2000/svg">
<g clip-path="url(#clip0_5_88)">
<path d="M5.59738 4.98726e-05C6.70994 -0.00478721 7.79875 0.342334 8.72602 0.997208C9.65329 1.65208 10.3773 2.58528 10.8062 3.67877C11.2351 4.77225 11.3497 5.97654 11.1354 7.13944C10.9211 8.30234 10.3876 9.37146 9.60252 10.2111C8.81742 11.0508 7.81606 11.6235 6.7252 11.8565C5.63435 12.0895 4.50307 11.9724 3.47475 11.52C2.44644 11.0676 1.56733 10.3001 0.948742 9.31511C0.330154 8.33009 9.26778e-06 7.17166 1.95268e-10 5.98658C-1.23833e-05 4.40304 0.588979 2.88402 1.63804 1.762C2.68709 0.63999 4.11076 0.00651327 5.59738 4.98726e-05ZM0.756922 16.4694H10.4377V49.2128H0.779884L0.756922 16.4694Z" fill="white"/>
<path d="M41.8428 0C42.9544 0 44.041 0.35097 44.9652 1.00879C45.8895 1.66661 46.6098 2.6018 47.0352 3.69572C47.4606 4.78963 47.5719 5.9933 47.355 7.1546C47.1382 8.3159 46.603 9.3825 45.8169 10.2197C45.0309 11.057 44.0295 11.6272 42.9392 11.8582C41.849 12.0892 40.719 11.9707 39.692 11.5176C38.665 11.0645 37.7872 10.2972 37.1696 9.31267C36.552 8.32817 36.2224 7.17057 36.2224 5.98653C36.2224 5.20035 36.3679 4.42205 36.6503 3.69572C36.9327 2.96938 37.3467 2.30922 37.8686 1.7533C38.3905 1.19739 39.0101 0.756633 39.692 0.455775C40.3739 0.154918 41.1047 0 41.8428 0ZM37.0024 16.4694H46.6601V49.2372H37.0024V16.4694Z" fill="white"/>
<path d="M69.4627 25.9504C68.7884 25.0251 67.9265 24.2741 66.9413 23.7536C65.9561 23.2331 64.8733 22.9568 63.7736 22.945C62.2137 22.945 59.8738 23.8002 59.8738 25.7551C59.8738 30.6421 74.4866 27.1965 74.4866 39.5608C74.4866 46.8914 68.5452 50.0681 62.0531 50.0681C57.4023 50.168 52.882 48.4267 49.3672 45.181L54.7582 38.8279C55.5702 39.9554 56.611 40.8729 57.8027 41.5118C58.9944 42.1508 60.3062 42.4946 61.6402 42.5176C63.7507 42.5176 65.3106 41.6622 65.3106 39.9029C65.3106 34.1362 50.8354 38.2171 50.8354 26.366C50.8354 18.6444 57.1897 15.4921 63.5441 15.4921C65.5956 15.3585 67.6512 15.6733 69.5842 16.417C71.5173 17.1608 73.2871 18.3179 74.7848 19.8172L69.4627 25.9504Z" fill="white"/>
<path d="M33.1485 15.3943C31.2768 15.2178 29.3989 15.6483 27.7613 16.6295C26.1236 17.6107 24.8028 19.0968 23.9724 20.8922H23.8348V16.3715H14.4065V49.1148H24.0643V35.7977C24.0643 29.1513 24.9818 24.6306 32.3227 24.6306C32.7659 24.6056 33.21 24.6056 33.6532 24.6306L34.0432 15.3209H33.2403" fill="white"/>
<path d="M120.229 48.5774C114.214 51.7412 107.547 53.2373 100.845 52.927C87.5163 52.5604 76.5051 42.3463 76.4822 26.8055C76.4822 10.8248 87.0576 0.635376 101.602 0.635376C108.965 0.635376 115.366 2.54116 119.954 7.18387L112.842 15.5898C111.401 13.9975 109.643 12.7693 107.698 11.9955C105.753 11.2216 103.67 10.9221 101.602 11.1182C94.7196 11.1182 88.434 17.2757 88.434 26.8055C88.434 36.3352 93.7102 41.7111 100.776 42.493C103.898 42.8762 107.06 42.3879 109.952 41.0759V31.9368H101.051V22.3584H120.344L120.229 48.5774Z" fill="#DC0303"/>
<path d="M149.019 0.635376C163.677 0.635376 174.253 10.8248 174.253 26.8055C174.253 42.7862 163.563 53 149.019 53C134.475 53 123.67 42.7862 123.67 26.8055C123.67 10.8248 134.36 0.635376 149.019 0.635376ZM149.019 42.1754C157.093 42.1754 162.37 35.7244 162.37 26.8544C162.37 17.9844 157.093 11.5334 149.019 11.5334C140.944 11.5334 135.667 17.9844 135.667 26.8544C135.667 35.7244 140.944 42.1754 149.019 42.1754Z" fill="#DC0303"/>
<path d="M182.328 1.00195V2.63893H178.497V12.7552H176.662V2.63893H172.83V1.00195H182.328Z" fill="white"/>
<path d="M196 1.00195V12.7796H194.371V5.96209L194.509 2.7123L191.091 12.7796H189.577L186.159 2.7123L186.296 5.96209V12.7796H184.599V1.00195H187.306L189.6 7.8192L190.38 10.6049L191.183 7.8192L193.477 1.00195H196Z" fill="white"/>
</g>
<defs>
<clipPath id="clip0_5_88">
<rect width="196" height="53" fill="white"/>
</clipPath>
</defs>
</svg>
